<svg xmlns="http://www.w3.org/2000/svg" xmlns:xlink="http://www.w3.org/1999/xlink" width="48" height="48" viewBox="0 0 48 48">
  <defs>
    <clipPath id="clip-path">
      <path id="Path_4628" data-name="Path 4628" d="M0,0H48V48H0Z" fill="none"/>
    </clipPath>
    <clipPath id="clip-boabolyLogo">
      <rect width="48" height="48"/>
    </clipPath>
  </defs>
  <g id="boabolyLogo" clip-path="url(#clip-boabolyLogo)">
    <rect id="Rectangle_29" data-name="Rectangle 29" width="48" height="48" fill="none"/>
    <g id="Mask_Group_12" data-name="Mask Group 12" clip-path="url(#clip-path)">
      <path id="Path_266" data-name="Path 266" d="M279.762,92.01a1.012,1.012,0,0,1-.91-1.445,5.009,5.009,0,0,1,3.62-2.518,1.012,1.012,0,0,1,.286,2,3,3,0,0,0-2.078,1.382,1.012,1.012,0,0,1-.918.578" transform="translate(-251.952 -79.573)" fill="#ea7463"/>
      <path id="Path_267" data-name="Path 267" d="M277.29,89.8h0a1.274,1.274,0,0,1-1.147-1.821,5.3,5.3,0,0,1,3.82-2.665,1.314,1.314,0,0,1,.175-.012,1.274,1.274,0,0,1,.185,2.535,2.744,2.744,0,0,0-1.878,1.234A1.28,1.28,0,0,1,277.29,89.8Zm2.844-3.972a.78.78,0,0,0-.1.007,4.746,4.746,0,0,0-3.417,2.37.749.749,0,0,0,.674,1.07l0,.263v-.263a.752.752,0,0,0,.677-.428,3.22,3.22,0,0,1,2.275-1.529.749.749,0,0,0-.108-1.49Z" transform="translate(-249.477 -77.102)" fill="#221714"/>
      <path id="Path_268" data-name="Path 268" d="M135.374,159.214l-28.049-.09,1.325-13.06c.021-6.708,5.743-12.128,12.78-12.106s12.724,5.479,12.7,12.187Z" transform="translate(-97.006 -121.079)" fill="#221714"/>
      <path id="Path_269" data-name="Path 269" d="M132.9,157.005h0l-28.049-.09a.263.263,0,0,1-.261-.289l1.325-13.06c.02-6.794,5.852-12.342,13-12.342,7.215.023,13.031,5.609,13.009,12.451l1.241,13.042a.263.263,0,0,1-.262.288Zm-27.758-.614,27.469.088L131.4,143.7c.02-6.578-5.561-11.927-12.441-11.949-6.9,0-12.5,5.313-12.516,11.844Z" transform="translate(-94.535 -118.607)" fill="#221714"/>
      <path id="Path_270" data-name="Path 270" d="M110.8,108.285a7.767,7.767,0,0,1,2-10.833c6.241-4.814,18.095-1.81,22.894,3.479,3.847,4.239,2.854,8.994.339,9.477l-1.7-2.847-21.95-3.678Z" transform="translate(-98.874 -85.896)" fill="#ea7463"/>
      <path id="Path_271" data-name="Path 271" d="M133.7,108.2a.263.263,0,0,1-.226-.128l-1.636-2.743-21.614-3.621-1.514,4.2a.263.263,0,0,1-.462.062c-.044-.062-4.308-6.282,2.059-11.192a13.4,13.4,0,0,1,8.275-2.473c5.619,0,11.777,2.46,14.974,5.983,2.673,2.945,2.975,5.943,2.367,7.766a2.976,2.976,0,0,1-2.173,2.145A.263.263,0,0,1,133.7,108.2Zm-23.649-7.051a.265.265,0,0,1,.044,0l21.95,3.678a.263.263,0,0,1,.182.125l1.6,2.681a2.543,2.543,0,0,0,1.6-1.753c.536-1.605.266-4.466-2.258-7.247-3.1-3.421-9.1-5.811-14.584-5.811a12.888,12.888,0,0,0-7.954,2.364c-5.078,3.917-3.052,8.572-2.228,10.025l1.4-3.892A.263.263,0,0,1,110.051,101.149Z" transform="translate(-96.54 -83.425)" fill="#221714"/>
      <path id="Path_272" data-name="Path 272" d="M92.52,263.341a4.277,4.277,0,1,1-4.264-4.291,4.277,4.277,0,0,1,4.264,4.291" transform="translate(-75.893 -234.143)" fill="#f8d9c3"/>
      <path id="Path_273" data-name="Path 273" d="M85.772,265.4h-.015a4.538,4.538,0,1,1,.015,0Zm.013-8.555a4.014,4.014,0,1,0-.026,8.029l.013.263v-.263a4.014,4.014,0,0,0,.013-8.029Z" transform="translate(-73.422 -231.672)" fill="#221714"/>
      <path id="Line_45" data-name="Line 45" d="M2.148-2.193h0l-4.62-.015a.263.263,0,0,1-.262-.264.263.263,0,0,1,.264-.262l4.62.015a.263.263,0,0,1,.262.264A.263.263,0,0,1,2.148-2.193Z" transform="translate(14.48 31.522)" fill="#221714"/>
      <path id="Path_274" data-name="Path 274" d="M127.65,252.105l-1.531,6.349-.784-6.357Z" transform="translate(-113.285 -227.859)" fill="#221714"/>
      <path id="Path_275" data-name="Path 275" d="M327.059,264.09a4.277,4.277,0,1,0,4.291-4.264,4.277,4.277,0,0,0-4.291,4.264" transform="translate(-295.614 -234.845)" fill="#f8d9c3"/>
      <path id="Path_276" data-name="Path 276" d="M328.866,257.093h.015a4.547,4.547,0,1,1-.015,0Zm-.013,8.555a4.014,4.014,0,1,0,.026-8.029l-.013-.263v.263a4.014,4.014,0,0,0-.013,8.029Z" transform="translate(-293.143 -232.374)" fill="#221714"/>
      <path id="Line_46" data-name="Line 46" d="M2.821-2.191h0l-5.293-.017a.263.263,0,0,1-.262-.264.263.263,0,0,1,.264-.262l5.293.017a.263.263,0,0,1,.262.264A.263.263,0,0,1,2.821-2.191Z" transform="translate(33.917 31.584)" fill="#221714"/>
      <path id="Path_277" data-name="Path 277" d="M160.957,212.475l-6.839-.022a6.471,6.471,0,0,1-6.45-6.491l0-1.1a9.891,9.891,0,0,1,19.781.063l0,1.1a6.471,6.471,0,0,1-6.491,6.45" transform="translate(-133.47 -176.252)" fill="#fff"/>
      <path id="Path_278" data-name="Path 278" d="M139.864,187.959a9.333,9.333,0,0,0-9.289-8.922l-2.478-.008a9.368,9.368,0,0,0-9.37,9.31l0,.623a4.68,4.68,0,0,0-2.363,4.052v.221a5.762,5.762,0,0,0,5.743,5.78l11.156.036a6.592,6.592,0,0,0,6.613-6.571l.005-1.655.008-2.419c0-.151-.015-.3-.021-.449" transform="translate(-105.173 -161.816)" fill="#f8d9c3"/>
      <path id="Path_279" data-name="Path 279" d="M124.41,302.873a3.084,3.084,0,1,1-3.074-3.094,3.084,3.084,0,0,1,3.074,3.094" transform="translate(-106.873 -270.956)" fill="#f4c4d7"/>
      <path id="Path_280" data-name="Path 280" d="M299.723,303.433a3.084,3.084,0,1,1-3.074-3.094,3.084,3.084,0,0,1,3.074,3.094" transform="translate(-265.33 -271.462)" fill="#f4c4d7"/>
      <path id="Path_281" data-name="Path 281" d="M125.594,176.3h.031l2.478.008a9.6,9.6,0,0,1,9.572,9.634l-.013,4.074a6.867,6.867,0,0,1-6.854,6.833l-11.178-.036a6.031,6.031,0,0,1-6.005-6.044v-.221a4.962,4.962,0,0,1,2.364-4.2l0-.474A9.62,9.62,0,0,1,125.594,176.3Zm5.194,20.022a6.344,6.344,0,0,0,6.349-6.309l.013-4.074a9.077,9.077,0,0,0-9.048-9.106l-2.478-.008-.03-.263v.263a9.093,9.093,0,0,0-9.077,9.048l0,.623a.263.263,0,0,1-.132.227,4.435,4.435,0,0,0-2.231,3.825v.221a5.505,5.505,0,0,0,5.481,5.516Z" transform="translate(-102.701 -159.345)" fill="#221714"/>
      <path id="Path_282" data-name="Path 282" d="M152.137,152.193l-1.862-.006a9.783,9.783,0,0,0-9.814,9.752l0,.513,21.428.068,0-.513a9.783,9.783,0,0,0-9.752-9.814" transform="translate(-126.954 -137.555)" fill="#221714"/>
      <path id="Path_283" data-name="Path 283" d="M147.772,149.454h.033l1.862.006a10.058,10.058,0,0,1,10.014,10.078l0,.513a.263.263,0,0,1-.264.262l-21.428-.068a.263.263,0,0,1-.262-.264l0-.513A10.064,10.064,0,0,1,147.772,149.454Zm11.382,10.333v-.251a9.531,9.531,0,0,0-9.49-9.551l-1.862-.006-.031-.263v.263a9.537,9.537,0,0,0-9.52,9.49v.251Z" transform="translate(-124.483 -135.084)" fill="#221714"/>
      <path id="Path_284" data-name="Path 284" d="M123.914,147.7s2.449-5.872,10.794-5.212,14.235,7.3,14.235,7.3.314-6.766-11.071-10.447c-10.786-3.487-15.334,6.4-13.958,8.361" transform="translate(-111.784 -125.272)" fill="#ea7463"/>
      <path id="Path_285" data-name="Path 285" d="M144.695,148.969a.263.263,0,0,1-.2-.088c-.058-.066-5.921-6.567-14.059-7.211q-.659-.052-1.27-.051c-7.063,0-9.448,5.023-9.471,5.074a.263.263,0,0,1-.454.042c-.485-.69-.3-2.046.471-3.539a10.994,10.994,0,0,1,9.882-5.79,15.014,15.014,0,0,1,4.5.736c10.872,3.43,10.859,10.5,10.857,10.569a.263.263,0,0,1-.263.258Zm-15.526-7.876q.632,0,1.312.053c6.917.547,12.22,5.206,13.872,6.831-.326-1.83-1.986-6.675-10.41-9.333a14.49,14.49,0,0,0-4.346-.712,10.469,10.469,0,0,0-9.415,5.507,4.745,4.745,0,0,0-.664,2.51C120.371,144.594,123.159,141.093,129.169,141.093Z" transform="translate(-107.536 -124.195)" fill="#221714"/>
      <path id="Line_47" data-name="Line 47" d="M-2.471-.334h0A.263.263,0,0,1-2.734-.6l.006-1.874a.263.263,0,0,1,.264-.262A.263.263,0,0,1-2.2-2.47L-2.208-.6A.263.263,0,0,1-2.471-.334Z" transform="translate(18.332 25.379)" fill="#221714"/>
      <path id="Line_48" data-name="Line 48" d="M-2.471-.334h0A.263.263,0,0,1-2.734-.6l.006-1.874a.263.263,0,0,1,.264-.262A.263.263,0,0,1-2.2-2.47L-2.208-.6A.263.263,0,0,1-2.471-.334Z" transform="translate(20.607 25.386)" fill="#221714"/>
      <path id="Line_49" data-name="Line 49" d="M-2.471-.334h0A.263.263,0,0,1-2.734-.6l.006-1.874a.263.263,0,0,1,.264-.262A.263.263,0,0,1-2.2-2.47L-2.208-.6A.263.263,0,0,1-2.471-.334Z" transform="translate(22.883 25.393)" fill="#221714"/>
      <path id="Line_50" data-name="Line 50" d="M-2.471-.334h0A.263.263,0,0,1-2.734-.6l.006-1.874a.263.263,0,0,1,.264-.262A.263.263,0,0,1-2.2-2.47L-2.208-.6A.263.263,0,0,1-2.471-.334Z" transform="translate(25.159 25.4)" fill="#221714"/>
      <path id="Line_51" data-name="Line 51" d="M-2.471-.334h0A.263.263,0,0,1-2.734-.6l.006-1.874a.263.263,0,0,1,.264-.262A.263.263,0,0,1-2.2-2.47L-2.208-.6A.263.263,0,0,1-2.471-.334Z" transform="translate(27.434 25.408)" fill="#221714"/>
      <path id="Line_52" data-name="Line 52" d="M-2.471-.334h0A.263.263,0,0,1-2.734-.6l.006-1.874a.263.263,0,0,1,.264-.262A.263.263,0,0,1-2.2-2.47L-2.208-.6A.263.263,0,0,1-2.471-.334Z" transform="translate(29.71 25.415)" fill="#221714"/>
      <path id="Line_53" data-name="Line 53" d="M-2.471-.334h0A.263.263,0,0,1-2.734-.6l.006-1.874a.263.263,0,0,1,.264-.262A.263.263,0,0,1-2.2-2.47L-2.208-.6A.263.263,0,0,1-2.471-.334Z" transform="translate(31.986 25.422)" fill="#221714"/>
      <path id="Line_54" data-name="Line 54" d="M-2.471-.334h0A.263.263,0,0,1-2.734-.6l.006-1.874a.263.263,0,0,1,.264-.262A.263.263,0,0,1-2.2-2.47L-2.208-.6A.263.263,0,0,1-2.471-.334Z" transform="translate(34.261 25.429)" fill="#221714"/>
      <path id="Path_286" data-name="Path 286" d="M358.121,249.651l.543,6.509L360.41,250Z" transform="translate(-323.689 -225.648)" fill="#221714"/>
      <path id="Path_287" data-name="Path 287" d="M187.151,285.683a1.1,1.1,0,1,1-1.119-1.082,1.1,1.1,0,0,1,1.119,1.082" transform="translate(-167.174 -257.237)" fill="#201715"/>
      <path id="Path_288" data-name="Path 288" d="M257.865,284.227a1.1,1.1,0,1,1-1.119-1.082,1.1,1.1,0,0,1,1.119,1.082" transform="translate(-231.09 -255.921)" fill="#201715"/>
      <path id="Path_289" data-name="Path 289" d="M225.056,313.017a.67.67,0,1,1-.667-.674.67.67,0,0,1,.667.674" transform="translate(-202.205 -282.313)" fill="#ea7463"/>
      <path id="Line_55" data-name="Line 55" d="M-2.471-2.172a.263.263,0,0,1-.263-.257A.263.263,0,0,1-2.477-2.7l1.744-.036a.263.263,0,0,1,.268.257.263.263,0,0,1-.257.268l-1.744.036Z" transform="translate(20.475 28.908)" fill="#221714"/>
      <path id="Line_56" data-name="Line 56" d="M-2.471-2.172a.263.263,0,0,1-.263-.257A.263.263,0,0,1-2.477-2.7l1.744-.036a.263.263,0,0,1,.268.257.263.263,0,0,1-.257.268l-1.744.036Z" transform="translate(27.191 28.77)" fill="#221714"/>
      <path id="Path_290" data-name="Path 290" d="M221.426,334.891a2.574,2.574,0,0,1-1.219-.314.263.263,0,0,1,.268-.452,1.905,1.905,0,0,0,1.8.018.263.263,0,0,1,.257.459A2.238,2.238,0,0,1,221.426,334.891Z" transform="translate(-198.919 -301.967)" fill="#221714"/>
    </g>
  </g>
</svg>
